<svg width="44" height="44" viewBox="0 0 44 44" fill="none" xmlns="http://www.w3.org/2000/svg">
<path d="M37.9683 17.0317L26.9683 6.03167C26.7994 5.86676 26.6002 5.73603 26.3817 5.64667C26.1544 5.5543 25.912 5.50458 25.6667 5.5H11C9.54131 5.5 8.14236 6.07946 7.11091 7.11091C6.07946 8.14236 5.5 9.54131 5.5 11V33C5.5 34.4587 6.07946 35.8576 7.11091 36.8891C8.14236 37.9205 9.54131 38.5 11 38.5H33C34.4587 38.5 35.8576 37.9205 36.8891 36.8891C37.9205 35.8576 38.5 34.4587 38.5 33V18.3333C38.5014 18.0921 38.4551 17.8529 38.3639 17.6295C38.2727 17.4061 38.1382 17.203 37.9683 17.0317ZM16.5 9.16667H23.8333V12.8333H16.5V9.16667ZM27.5 34.8333H16.5V29.3333C16.5 28.8471 16.6932 28.3808 17.037 28.037C17.3808 27.6932 17.8471 27.5 18.3333 27.5H25.6667C26.1529 27.5 26.6192 27.6932 26.963 28.037C27.3068 28.3808 27.5 28.8471 27.5 29.3333V34.8333ZM34.8333 33C34.8333 33.4862 34.6402 33.9525 34.2964 34.2964C33.9525 34.6402 33.4862 34.8333 33 34.8333H31.1667V29.3333C31.1667 27.8746 30.5872 26.4757 29.5558 25.4442C28.5243 24.4128 27.1254 23.8333 25.6667 23.8333H18.3333C16.8746 23.8333 15.4757 24.4128 14.4442 25.4442C13.4128 26.4757 12.8333 27.8746 12.8333 29.3333V34.8333H11C10.5138 34.8333 10.0475 34.6402 9.70364 34.2964C9.35982 33.9525 9.16667 33.4862 9.16667 33V11C9.16667 10.5138 9.35982 10.0475 9.70364 9.70364C10.0475 9.35982 10.5138 9.16667 11 9.16667H12.8333V14.6667C12.8333 15.1529 13.0265 15.6192 13.3703 15.963C13.7141 16.3068 14.1804 16.5 14.6667 16.5H25.6667C26.1529 16.5 26.6192 16.3068 26.963 15.963C27.3068 15.6192 27.5 15.1529 27.5 14.6667V11.7517L34.8333 19.085V33Z" fill="black"/>
</svg>
