<svg width="33" height="32" viewBox="0 0 33 32" fill="none" xmlns="http://www.w3.org/2000/svg">
<path d="M30.7307 19.4093L32.5128 9.60799C32.5855 9.20769 32.5694 8.79629 32.4657 8.40288C32.3619 8.00947 32.173 7.64366 31.9123 7.33129C31.6516 7.01893 31.3255 6.76765 30.957 6.59521C30.5885 6.42278 30.1866 6.3334 29.7797 6.33339H6.94655L6.35118 3.05878C6.23507 2.41861 5.89784 1.83955 5.39833 1.42267C4.89882 1.00579 4.26878 0.777562 3.61816 0.777832H1.66667C1.22464 0.777832 0.800716 0.953427 0.488155 1.26599C0.175595 1.57855 0 2.00247 0 2.4445C0 2.88653 0.175595 3.31045 0.488155 3.62301C0.800716 3.93557 1.22464 4.11117 1.66667 4.11117H3.15457L6.78019 24.0524C6.79674 24.1434 6.81844 24.2322 6.84333 24.3195C6.29717 24.872 5.90545 25.558 5.70727 26.3092C5.50909 27.0604 5.51138 27.8504 5.71391 28.6004C5.91644 29.3504 6.31213 30.0342 6.86149 30.5835C7.41085 31.1328 8.09467 31.5284 8.8447 31.7309C9.59473 31.9334 10.3847 31.9356 11.1359 31.7374C11.8871 31.5391 12.5731 31.1473 13.1255 30.6011C13.678 30.0549 14.0775 29.3734 14.2843 28.6245C14.491 27.8757 14.4977 27.0857 14.3038 26.3334H22.3629C22.1311 27.2309 22.1857 28.1784 22.5191 29.0434C22.8525 29.9083 23.448 30.6473 24.2222 31.1571C24.9964 31.6668 25.9106 31.9218 26.8369 31.8862C27.7632 31.8506 28.6552 31.5264 29.388 30.9588C30.1209 30.3912 30.6579 29.6086 30.924 28.7207C31.1901 27.8327 31.172 26.8838 30.872 26.0067C30.5721 25.1296 30.0055 24.3682 29.2514 23.8291C28.4974 23.29 27.5936 23.0001 26.6667 23.0001H9.97681L9.57275 20.7778H29.0908C29.4812 20.7778 29.8591 20.6408 30.1588 20.3907C30.4584 20.1406 30.6608 19.7933 30.7307 19.4093ZM11.1111 27.4445C11.1111 27.6643 11.0459 27.8791 10.9239 28.0618C10.8018 28.2445 10.6282 28.3869 10.4252 28.471C10.2222 28.5551 9.99877 28.5771 9.78323 28.5343C9.5677 28.4914 9.36972 28.3856 9.21433 28.2302C9.05894 28.0748 8.95311 27.8768 8.91024 27.6613C8.86737 27.4457 8.88937 27.2223 8.97347 27.0193C9.05756 26.8163 9.19998 26.6427 9.3827 26.5206C9.56542 26.3986 9.78024 26.3334 10 26.3334C10.2946 26.3337 10.577 26.4509 10.7853 26.6592C10.9936 26.8675 11.1108 27.1499 11.1111 27.4445ZM26.6667 28.5556C26.4469 28.5556 26.2321 28.4904 26.0494 28.3684C25.8666 28.2463 25.7242 28.0727 25.6401 27.8697C25.556 27.6667 25.534 27.4433 25.5769 27.2277C25.6198 27.0122 25.7256 26.8142 25.881 26.6588C26.0364 26.5034 26.2344 26.3976 26.4499 26.3547C26.6654 26.3119 26.8888 26.3339 27.0919 26.418C27.2949 26.5021 27.4684 26.6445 27.5905 26.8272C27.7126 27.0099 27.7778 27.2247 27.7778 27.4445C27.7774 27.7391 27.6603 28.0215 27.452 28.2298C27.2437 28.4381 26.9613 28.5553 26.6667 28.5556ZM8.96674 17.4445L7.55263 9.66672H29.114L27.6999 17.4445H8.96674Z" fill="white"/>
</svg>
