<svg width="36" height="33" viewBox="0 0 36 33" fill="none" xmlns="http://www.w3.org/2000/svg">
<path d="M32.2196 32.1445C31.8321 32.1425 31.4502 32.0534 31.1019 31.8837L23.9114 28.2822H10.5487C7.91375 28.2822 5.38673 27.2355 3.52355 25.3723C1.66036 23.5091 0.613632 20.9821 0.613632 18.3472V10.8959C0.613632 8.26094 1.66036 5.73391 3.52355 3.87073C5.38673 2.00754 7.91375 0.960815 10.5487 0.960815H25.4513C28.0862 0.960815 30.6133 2.00754 32.4764 3.87073C34.3396 5.73391 35.3864 8.26094 35.3864 10.8959V18.3472C35.3856 20.5238 34.67 22.6399 33.3497 24.3703L34.5916 29.0025C34.6924 29.3693 34.7076 29.7544 34.6361 30.128C34.5645 30.5016 34.4081 30.8538 34.1789 31.1574C33.9497 31.461 33.6539 31.7078 33.3141 31.879C32.9744 32.0501 32.5999 32.141 32.2196 32.1445ZM10.5487 3.44458C8.57249 3.44458 6.67722 4.22963 5.27983 5.62702C3.88244 7.02441 3.0974 8.91967 3.0974 10.8959V18.3472C3.0974 20.3234 3.88244 22.2187 5.27983 23.616C6.67722 25.0134 8.57249 25.7985 10.5487 25.7985H24.2094C24.4038 25.7996 24.5952 25.8464 24.7683 25.9351L32.2196 29.6607L30.779 24.3951C30.7267 24.197 30.7243 23.9889 30.7719 23.7895C30.8196 23.5902 30.9159 23.4057 31.0522 23.2526C32.2429 21.8956 32.9004 20.1525 32.9026 18.3472V10.8959C32.9026 8.91967 32.1175 7.02441 30.7202 5.62702C29.3228 4.22963 27.4275 3.44458 25.4513 3.44458H10.5487Z" fill="white"/>
<path d="M27.9351 19.7257H8.06493C7.73556 19.7257 7.41969 19.5948 7.18679 19.3619C6.95389 19.129 6.82305 18.8132 6.82305 18.4838C6.82305 18.1544 6.95389 17.8385 7.18679 17.6056C7.41969 17.3727 7.73556 17.2419 8.06493 17.2419H27.9351C28.2644 17.2419 28.5803 17.3727 28.8132 17.6056C29.0461 17.8385 29.1769 18.1544 29.1769 18.4838C29.1769 18.8132 29.0461 19.129 28.8132 19.3619C28.5803 19.5948 28.2644 19.7257 27.9351 19.7257Z" fill="white"/>
<path d="M27.9351 12.2744H8.06493C7.73556 12.2744 7.41969 12.1435 7.18679 11.9106C6.95389 11.6777 6.82305 11.3619 6.82305 11.0325C6.82305 10.7031 6.95389 10.3872 7.18679 10.1543C7.41969 9.92144 7.73556 9.7906 8.06493 9.7906H27.9351C28.2644 9.7906 28.5803 9.92144 28.8132 10.1543C29.0461 10.3872 29.1769 10.7031 29.1769 11.0325C29.1769 11.3619 29.0461 11.6777 28.8132 11.9106C28.5803 12.1435 28.2644 12.2744 27.9351 12.2744Z" fill="white"/>
</svg>
