<svg width="44" height="44" viewBox="0 0 44 44" fill="none" xmlns="http://www.w3.org/2000/svg">
<path d="M12.8333 12.8333H10.9999C10.0275 12.8333 9.09483 13.2196 8.40719 13.9072C7.71956 14.5948 7.33325 15.5275 7.33325 16.4999V32.9999C7.33325 33.9724 7.71956 34.905 8.40719 35.5926C9.09483 36.2803 10.0275 36.6666 10.9999 36.6666H27.4999C28.4724 36.6666 29.405 36.2803 30.0926 35.5926C30.7803 34.905 31.1666 33.9724 31.1666 32.9999V31.1666" stroke="black" stroke-width="2" stroke-linecap="round" stroke-linejoin="round"/>
<path d="M29.3333 9.16662L34.8333 14.6666M37.3725 12.0725C38.0946 11.3504 38.5002 10.3711 38.5002 9.34995C38.5002 8.32882 38.0946 7.3495 37.3725 6.62745C36.6505 5.9054 35.6711 5.49976 34.65 5.49976C33.6289 5.49976 32.6496 5.9054 31.9275 6.62745L16.5 22V27.5H22L37.3725 12.0725Z" stroke="black" stroke-width="2" stroke-linecap="round" stroke-linejoin="round"/>
</svg>
