<svg width="120" height="118" viewBox="0 0 120 118" fill="none" xmlns="http://www.w3.org/2000/svg">
<path d="M49.504 101.13C50.393 101.48 51.31 101.76 52.234 101.97C53.396 104.602 54.838 107.08 56.532 109.369C53.2363 109.44 49.9601 108.845 46.9 107.619L6.601 91.5051C4.65215 90.7257 2.98161 89.3801 1.80498 87.642C0.628359 85.9039 -0.000350448 83.853 1.46549e-07 81.7541V28.2321C0.00104833 26.1344 0.630409 24.0851 1.80695 22.3483C2.98348 20.6116 4.65326 19.2671 6.601 18.4881L46.9 2.36011C52.7416 0.023191 59.2584 0.023191 65.1 2.36011L105.399 18.4811C109.389 20.0701 112 23.9341 112 28.2251V56.7851C109.841 55.0025 107.493 53.4604 105 52.1861V28.2321C105 27.5331 104.79 26.8502 104.399 26.2713C104.007 25.6925 103.451 25.2441 102.802 24.9841L62.496 8.87012C58.3258 7.20302 53.6742 7.20302 49.504 8.87012L9.198 24.9841C8.54919 25.2441 7.99309 25.6925 7.60135 26.2713C7.20961 26.8502 7.00016 27.5331 7 28.2321V81.7541C6.99876 82.4543 7.20755 83.1387 7.59939 83.719C7.99122 84.2993 8.54808 84.7487 9.198 85.0091L49.504 101.13ZM25.921 27.2941C25.0726 26.9172 24.1092 26.8928 23.2428 27.2263C22.3763 27.5597 21.6779 28.2237 21.301 29.0721C20.9241 29.9205 20.8997 30.8839 21.2332 31.7504C21.5666 32.6168 22.2306 33.3152 23.079 33.6921L52.5 46.7681V70.4351C54.2544 66.6241 56.6187 63.1248 59.5 60.0751V46.7751L88.921 33.6921C89.3411 33.5055 89.7203 33.238 90.037 32.9048C90.3537 32.5716 90.6017 32.1794 90.7668 31.7504C90.9319 31.3213 91.0109 30.864 90.9993 30.4045C90.9877 29.945 90.8856 29.4922 90.699 29.0721C90.5124 28.652 90.2449 28.2728 89.9117 27.9561C89.5785 27.6394 89.1863 27.3914 88.7572 27.2263C88.3282 27.0612 87.8709 26.9822 87.4114 26.9938C86.9518 27.0055 86.4991 27.1075 86.079 27.2941L56 40.6641L25.921 27.2941ZM105 112.687C101.56 114.985 97.7013 116.583 93.6439 117.39C89.5864 118.197 85.4098 118.197 81.3524 117.389C77.2951 116.582 73.4364 114.984 69.9969 112.685C66.5573 110.386 63.6041 107.433 61.306 103.993C56.6647 97.046 54.9732 88.5397 56.6037 80.3455C58.2341 72.1513 63.0529 64.9404 70 60.2991C76.9471 55.6578 85.4534 53.9663 93.6476 55.5968C101.842 57.2272 109.053 62.046 113.694 68.9931C118.335 75.9402 120.027 84.4465 118.396 92.6407C116.766 100.835 111.947 108.046 105 112.687ZM89.978 70.0221C89.4889 69.5318 88.8654 69.1976 88.1863 69.0618C87.5072 68.926 86.803 68.9947 86.163 69.2593C85.523 69.5238 84.9758 69.9723 84.5908 70.548C84.2058 71.1236 84.0002 71.8006 84 72.4931V82.9931H73.5C72.5717 82.9931 71.6815 83.3619 71.0251 84.0182C70.3688 84.6746 70 85.5649 70 86.4931C70 87.4214 70.3688 88.3116 71.0251 88.968C71.6815 89.6244 72.5717 89.9931 73.5 89.9931H84V100.493C84 101.421 84.3688 102.312 85.0251 102.968C85.6815 103.624 86.5717 103.993 87.5 103.993C88.4283 103.993 89.3185 103.624 89.9749 102.968C90.6313 102.312 91 101.421 91 100.493V89.9931H101.5C102.428 89.9931 103.319 89.6244 103.975 88.968C104.631 88.3116 105 87.4214 105 86.4931C105 85.5649 104.631 84.6746 103.975 84.0182C103.319 83.3619 102.428 82.9931 101.5 82.9931H91V72.4931C91.0008 72.0332 90.911 71.5776 90.7356 71.1524C90.5603 70.7272 90.3028 70.3477 89.978 70.0221Z" fill="black"/>
</svg>

