<svg width="118" height="118" viewBox="0 0 118 118" fill="none" xmlns="http://www.w3.org/2000/svg">
<path d="M12.1667 105.5C8.95834 105.5 6.21084 104.357 3.92417 102.07C1.63751 99.7833 0.496121 97.0377 0.50001 93.8333V53V12.1667C0.50001 8.95834 1.64334 6.21084 3.93001 3.92417C6.21667 1.63751 8.96223 0.496121 12.1667 0.50001H93.8333C97.0416 0.50001 99.7891 1.64334 102.076 3.93001C104.362 6.21667 105.504 8.96223 105.5 12.1667V51.25C103.653 50.375 101.757 49.6205 99.8124 48.9866C97.868 48.3528 95.875 47.8919 93.8333 47.6041V12.1667H12.1667V93.8333H47.4583C47.75 95.9722 48.2128 98.0138 48.8467 99.9583C49.4805 101.903 50.233 103.75 51.1041 105.5H12.1667ZM12.1667 88V93.8333V12.1667V47.6041V47.1666V88ZM23.8333 82.1666H47.6041C47.8958 80.125 48.3586 78.1319 48.9925 76.1875C49.6264 74.243 50.3303 72.3472 51.1041 70.5H23.8333V82.1666ZM23.8333 58.8333H59.4166C62.5278 55.9166 66.0044 53.4861 69.8466 51.5416C73.6889 49.5972 77.7955 48.2847 82.1666 47.6041V47.1666H23.8333V58.8333ZM23.8333 35.5H82.1666V23.8333H23.8333V35.5ZM88 117.167C79.9305 117.167 73.0511 114.322 67.3616 108.632C61.6722 102.943 58.8294 96.0655 58.8333 88C58.8333 79.9305 61.678 73.0511 67.3675 67.3616C73.0569 61.6722 79.9344 58.8294 88 58.8333C96.0694 58.8333 102.949 61.678 108.638 67.3675C114.328 73.0569 117.17 79.9344 117.167 88C117.167 96.0694 114.322 102.949 108.632 108.638C102.943 114.328 96.0655 117.17 88 117.167ZM85.0833 105.5H90.9166V90.9166H105.5V85.0833H90.9166V70.5H85.0833V85.0833H70.5V90.9166H85.0833V105.5Z" fill="black"/>
</svg>
