<svg width="118" height="118" viewBox="0 0 118 118" fill="none" xmlns="http://www.w3.org/2000/svg">
<path d="M59.0001 0.666748C26.8001 0.666748 0.666748 26.8001 0.666748 59.0001C0.666748 91.2001 26.8001 117.333 59.0001 117.333C91.2001 117.333 117.333 91.2001 117.333 59.0001C117.333 26.8001 91.2001 0.666748 59.0001 0.666748ZM59.0001 24.0001C70.2584 24.0001 79.4167 33.1584 79.4167 44.4167C79.4167 55.6751 70.2584 64.8334 59.0001 64.8334C47.7417 64.8334 38.5834 55.6751 38.5834 44.4167C38.5834 33.1584 47.7417 24.0001 59.0001 24.0001ZM59.0001 105.667C47.1584 105.667 33.1584 100.883 23.1834 88.8667C33.4011 80.8501 46.0129 76.4931 59.0001 76.4931C71.9873 76.4931 84.599 80.8501 94.8167 88.8667C84.8417 100.883 70.8417 105.667 59.0001 105.667Z" fill="black"/>
</svg>
